<?xml version="1.0" standalone="no"?>
<svg xmlns="http://www.w3.org/2000/svg" xmlns:xlink="http://www.w3.org/1999/xlink" width="1833pt" height="338pt" viewBox="0.00 0.00 1833 337.8">
<g id="graph0" class="graph" transform="translate(4,333.79998779296875) scale(1)" data-name="G">

<polygon fill="#2e3e56" stroke="none" points="-4,4 -4,-333.8 1829,-333.8 1829,4 -4,4"/>
<g id="clust6" class="cluster" data-name="clusterProxyAdmin">

<path fill="#445773" stroke="#445773" d="M680,-177C680,-177 1203.46,-177 1203.46,-177 1209.46,-177 1215.46,-183 1215.46,-189 1215.46,-189 1215.46,-277.8 1215.46,-277.8 1215.46,-283.8 1209.46,-289.8 1203.46,-289.8 1203.46,-289.8 680,-289.8 680,-289.8 674,-289.8 668,-283.8 668,-277.8 668,-277.8 668,-189 668,-189 668,-183 674,-177 680,-177" style=""/>
<text text-anchor="middle" x="941.73" y="-273.2" font-family="Times,serif" font-size="14.00" fill="#f0f0f0" style="">ProxyAdmin</text>
</g>
<g id="clust2" class="cluster" data-name="clusterCounterV2">

<path fill="#445773" stroke="#445773" d="M1683,-68C1683,-68 1775,-68 1775,-68 1781,-68 1787,-74 1787,-80 1787,-80 1787,-120.8 1787,-120.8 1787,-126.8 1781,-132.8 1775,-132.8 1775,-132.8 1683,-132.8 1683,-132.8 1677,-132.8 1671,-126.8 1671,-120.8 1671,-120.8 1671,-80 1671,-80 1671,-74 1677,-68 1683,-68" style=""/>
<text text-anchor="middle" x="1729" y="-116.2" font-family="Times,serif" font-size="14.00" fill="#f0f0f0" style="">CounterV2</text>
</g>
<g id="clust12" class="cluster" data-name="cluster_01">

<polygon fill="#2e3e56" stroke="black" points="1633,-175 1633,-291.8 1825,-291.8 1825,-175 1633,-175" style=""/>
<text text-anchor="middle" x="1729" y="-275.2" font-family="Times,serif" font-size="14.00" style="">Legend</text>
</g>
<g id="clust3" class="cluster" data-name="clusterBuggyProxy">

<path fill="#445773" stroke="#445773" d="M1231,-181C1231,-181 1616.36,-181 1616.36,-181 1622.36,-181 1628.36,-187 1628.36,-193 1628.36,-193 1628.36,-273.8 1628.36,-273.8 1628.36,-279.8 1622.36,-285.8 1616.36,-285.8 1616.36,-285.8 1231,-285.8 1231,-285.8 1225,-285.8 1219,-279.8 1219,-273.8 1219,-273.8 1219,-193 1219,-193 1219,-187 1225,-181 1231,-181" style=""/>
<text text-anchor="middle" x="1423.68" y="-269.2" font-family="Times,serif" font-size="14.00" fill="#f0f0f0" style="">BuggyProxy</text>
</g>
<g id="clust5" class="cluster" data-name="clusterProxy">

<path fill="#445773" stroke="#445773" d="M12,-137C12,-137 652.29,-137 652.29,-137 658.29,-137 664.29,-143 664.29,-149 664.29,-149 664.29,-317.8 664.29,-317.8 664.29,-323.8 658.29,-329.8 652.29,-329.8 652.29,-329.8 12,-329.8 12,-329.8 6,-329.8 0,-323.8 0,-317.8 0,-317.8 0,-149 0,-149 0,-143 6,-137 12,-137" style=""/>
<text text-anchor="middle" x="332.15" y="-313.2" font-family="Times,serif" font-size="14.00" fill="#f0f0f0" style="">Proxy</text>
</g>
<g id="clust7" class="cluster" data-name="clusterStorageSlot">

<path fill="#445773" stroke="#445773" d="M881,-68C881,-68 1001.1,-68 1001.1,-68 1007.1,-68 1013.1,-74 1013.1,-80 1013.1,-80 1013.1,-120.8 1013.1,-120.8 1013.1,-126.8 1007.1,-132.8 1001.1,-132.8 1001.1,-132.8 881,-132.8 881,-132.8 875,-132.8 869,-126.8 869,-120.8 869,-120.8 869,-80 869,-80 869,-74 875,-68 881,-68" style=""/>
<text text-anchor="middle" x="941.05" y="-116.2" font-family="Times,serif" font-size="14.00" fill="#f0f0f0" style="">StorageSlot  (lib)</text>
</g>
<g id="clust1" class="cluster" data-name="clusterCounterV1">

<path fill="#445773" stroke="#445773" d="M1708,0C1708,0 1750.21,0 1750.21,0 1756.21,0 1762.21,-6 1762.21,-12 1762.21,-12 1762.21,-52.8 1762.21,-52.8 1762.21,-58.8 1756.21,-64.8 1750.21,-64.8 1750.21,-64.8 1708,-64.8 1708,-64.8 1702,-64.8 1696,-58.8 1696,-52.8 1696,-52.8 1696,-12 1696,-12 1696,-6 1702,0 1708,0" style=""/>
<text text-anchor="middle" x="1729.11" y="-48.2" font-family="Times,serif" font-size="14.00" fill="#f0f0f0" style="">CounterV1</text>
</g>
<g id="clust11" class="cluster" data-name="clusterabi">

<path fill="#3b4b63" stroke="#e8726d" stroke-dasharray="5,2" d="M287,0C287,0 375.95,0 375.95,0 381.95,0 387.95,-6 387.95,-12 387.95,-12 387.95,-52.8 387.95,-52.8 387.95,-58.8 381.95,-64.8 375.95,-64.8 375.95,-64.8 287,-64.8 287,-64.8 281,-64.8 275,-58.8 275,-52.8 275,-52.8 275,-12 275,-12 275,-6 281,0 287,0" style=""/>
<text text-anchor="middle" x="331.47" y="-48.2" font-family="Times,serif" font-size="14.00" fill="#f0f0f0" style="">abi</text>
</g>
<g id="clust8" class="cluster" data-name="clusterTestSlot">

<path fill="#445773" stroke="#445773" d="M255,-68C255,-68 407.8,-68 407.8,-68 413.8,-68 419.8,-74 419.8,-80 419.8,-80 419.8,-120.8 419.8,-120.8 419.8,-126.8 413.8,-132.8 407.8,-132.8 407.8,-132.8 255,-132.8 255,-132.8 249,-132.8 243,-126.8 243,-120.8 243,-120.8 243,-80 243,-80 243,-74 249,-68 255,-68" style=""/>
<text text-anchor="middle" x="331.4" y="-116.2" font-family="Times,serif" font-size="14.00" fill="#f0f0f0" style="">TestSlot</text>
</g>
<g id="clust10" class="cluster" data-name="clusterproxy">

<path fill="#3b4b63" stroke="#e8726d" stroke-dasharray="5,2" d="M906,0C906,0 976.71,0 976.71,0 982.71,0 988.71,-6 988.71,-12 988.71,-12 988.71,-52.8 988.71,-52.8 988.71,-58.8 982.71,-64.8 976.71,-64.8 976.71,-64.8 906,-64.8 906,-64.8 900,-64.8 894,-58.8 894,-52.8 894,-52.8 894,-12 894,-12 894,-6 900,0 906,0" style=""/>
<text text-anchor="middle" x="941.35" y="-48.2" font-family="Times,serif" font-size="14.00" fill="#f0f0f0" style="">proxy</text>
</g>
<g id="clust9" class="cluster" data-name="clusterimplementation">

<path fill="#3b4b63" stroke="#e8726d" stroke-dasharray="5,2" d="M1377,-68C1377,-68 1471.29,-68 1471.29,-68 1477.29,-68 1483.29,-74 1483.29,-80 1483.29,-80 1483.29,-120.8 1483.29,-120.8 1483.29,-126.8 1477.29,-132.8 1471.29,-132.8 1471.29,-132.8 1377,-132.8 1377,-132.8 1371,-132.8 1365,-126.8 1365,-120.8 1365,-120.8 1365,-80 1365,-80 1365,-74 1371,-68 1377,-68" style=""/>
<text text-anchor="middle" x="1424.14" y="-116.2" font-family="Times,serif" font-size="14.00" fill="#f0f0f0" style="">implementation</text>
</g>
<g id="clust4" class="cluster" data-name="clusterDev">

<path fill="#445773" stroke="#445773" d="M1389,0C1389,0 1458.64,0 1458.64,0 1464.64,0 1470.64,-6 1470.64,-12 1470.64,-12 1470.64,-52.8 1470.64,-52.8 1470.64,-58.8 1464.64,-64.8 1458.64,-64.8 1458.64,-64.8 1389,-64.8 1389,-64.8 1383,-64.8 1377,-58.8 1377,-52.8 1377,-52.8 1377,-12 1377,-12 1377,-6 1383,0 1389,0" style=""/>
<text text-anchor="middle" x="1423.82" y="-48.2" font-family="Times,serif" font-size="14.00" fill="#f0f0f0" style="">Dev</text>
</g>
<!-- CounterV1.inc -->
<g id="node1" class="node" pointer-events="visible" data-name="CounterV1.inc">

<ellipse fill="#ffbdb9" stroke="#ffbdb9" stroke-width="3" cx="1729.11" cy="-20" rx="27" ry="18"/>
<text text-anchor="middle" x="1729.11" y="-15.8" font-family="Times,serif" font-size="14.00">inc</text>
</g><g id="edge1" class="edge" data-name="BuggyProxy._delegate-&gt;implementation.delegatecall" data-comment="CounterV1.inc">

<path fill="none" stroke="white" stroke-width="2" d="M1441.44,-181.57C1438.31,-164.66 1433.72,-139.79 1430.05,-119.95"/>
<polygon fill="white" stroke="white" stroke-width="2" points="1433.5,-119.35 1428.24,-110.15 1426.61,-120.62 1433.5,-119.35"/>
</g>
<!-- CounterV2.inc -->
<g id="node2" class="node" pointer-events="visible" data-name="CounterV2.inc">

<ellipse fill="#ffbdb9" stroke="#ffbdb9" stroke-width="3" cx="1700" cy="-88" rx="27" ry="18"/>
<text text-anchor="middle" x="1700" y="-83.8" font-family="Times,serif" font-size="14.00">inc</text>
</g>
<!-- CounterV2.dec -->
<g id="node3" class="node" pointer-events="visible" data-name="CounterV2.dec">

<ellipse fill="#ffbdb9" stroke="#ffbdb9" stroke-width="3" cx="1758" cy="-88" rx="27" ry="18"/>
<text text-anchor="middle" x="1758" y="-83.8" font-family="Times,serif" font-size="14.00">dec</text>
</g><g id="edge2" class="edge" data-name="BuggyProxy.&lt;Fallback&gt;-&gt;BuggyProxy._delegate" data-comment="CounterV2.dec">

<path fill="none" stroke="#1bc6a6" stroke-width="2" d="M1529.53,-227.79C1518.68,-224.35 1506.88,-220.61 1495.62,-217.04"/>
<polygon fill="#1bc6a6" stroke="#1bc6a6" stroke-width="2" points="1496.71,-213.71 1486.12,-214.03 1494.59,-220.39 1496.71,-213.71"/>
</g>
<!-- BuggyProxy.&lt;Constructor&gt; -->
<g id="node4" class="node" pointer-events="visible" data-name="BuggyProxy.&lt;Constructor&gt;">

<ellipse fill="#ff9797" stroke="#ff9797" stroke-width="3" cx="1444.53" cy="-241" rx="67.55" ry="18"/>
<text text-anchor="middle" x="1444.53" y="-236.8" font-family="Times,serif" font-size="14.00">&lt;Constructor&gt;</text>
</g>
<!-- BuggyProxy._delegate -->
<g id="node5" class="node" pointer-events="visible" data-name="BuggyProxy._delegate">

<ellipse fill="#edad56" stroke="#edad56" stroke-width="3" cx="1445.03" cy="-201" rx="48.07" ry="18"/>
<text text-anchor="middle" x="1445.03" y="-196.8" font-family="Times,serif" font-size="14.00">_delegate</text>
</g><g id="edge3" class="edge" data-name="BuggyProxy.&lt;Receive Ether&gt;-&gt;BuggyProxy._delegate" data-comment="BuggyProxy._delegate">

<path fill="none" stroke="#1bc6a6" stroke-width="2" d="M1349.84,-226.78C1363.55,-223.07 1378.33,-219.07 1392.07,-215.35"/>
<polygon fill="#1bc6a6" stroke="#1bc6a6" stroke-width="2" points="1392.67,-218.81 1401.4,-212.82 1390.84,-212.05 1392.67,-218.81"/>
</g>
<!-- implementation.delegatecall -->
<g id="node34" class="node" pointer-events="visible" data-name="implementation.delegatecall">

<ellipse fill="#edad56" stroke="#edad56" stroke-width="3" cx="1424.14" cy="-88" rx="57.29" ry="18"/>
<text text-anchor="middle" x="1424.14" y="-83.8" font-family="Times,serif" font-size="14.00">delegatecall</text>
</g>
<!-- BuggyProxy._delegate&#45;&gt;implementation.delegatecall -->

<!-- BuggyProxy.&lt;Fallback&gt; -->
<g id="node6" class="node" pointer-events="visible" data-name="BuggyProxy.&lt;Fallback&gt;">

<ellipse fill="#ffbdb9" stroke="brown" stroke-width="3" cx="1571.18" cy="-241" rx="55.36" ry="18"/>
<text text-anchor="middle" x="1571.18" y="-236.8" font-family="Times,serif" font-size="14.00">&lt;Fallback&gt;</text>
</g>
<!-- BuggyProxy.&lt;Fallback&gt;&#45;&gt;BuggyProxy._delegate -->

<!-- BuggyProxy.&lt;Receive Ether&gt; -->
<g id="node7" class="node" pointer-events="visible" data-name="BuggyProxy.&lt;Receive Ether&gt;">

<ellipse fill="#ffbdb9" stroke="brown" stroke-width="3" cx="1297.35" cy="-241" rx="76.21" ry="18"/>
<text text-anchor="middle" x="1297.35" y="-236.8" font-family="Times,serif" font-size="14.00">&lt;Receive Ether&gt;</text>
</g><g id="edge4" class="edge" data-name="Proxy.&lt;Constructor&gt;-&gt;Proxy._setAdmin" data-comment="BuggyProxy.&lt;Receive Ether&gt;">

<path fill="none" stroke="#1bc6a6" stroke-width="2" d="M142.56,-228.27C164.61,-222.88 190.38,-216.58 212.98,-211.05"/>
<polygon fill="#1bc6a6" stroke="#1bc6a6" stroke-width="2" points="213.7,-214.48 222.58,-208.7 212.03,-207.68 213.7,-214.48"/>
</g>
<!-- BuggyProxy.&lt;Receive Ether&gt;&#45;&gt;BuggyProxy._delegate -->

<!-- BuggyProxy.upgradeTo -->
<g id="node8" class="node" pointer-events="visible" data-name="BuggyProxy.upgradeTo">

<ellipse fill="#ffbdb9" stroke="#ffbdb9" stroke-width="3" cx="1296.87" cy="-201" rx="52.73" ry="18"/>
<text text-anchor="middle" x="1296.87" y="-196.8" font-family="Times,serif" font-size="14.00">upgradeTo</text>
</g>
<!-- Dev.selectors -->
<g id="node9" class="node" pointer-events="visible" data-name="Dev.selectors">

<ellipse fill="#ffbdb9" stroke="#ffbdb9" stroke-width="3" cx="1423.82" cy="-20" rx="44.64" ry="18"/>
<text text-anchor="middle" x="1423.82" y="-15.8" font-family="Times,serif" font-size="14.00">selectors</text>
</g><g id="edge5" class="edge" data-name="Proxy.ifAdmin-&gt;Proxy._getAdmin" data-comment="Dev.selectors">

<path fill="none" stroke="#1bc6a6" stroke-width="2" d="M386.76,-234.37C325.01,-226.58 222.59,-213.66 155.81,-205.24"/>
<polygon fill="#1bc6a6" stroke="#1bc6a6" stroke-width="2" points="156.32,-201.77 145.96,-204 155.44,-208.72 156.32,-201.77"/>
</g>
<!-- Proxy.&lt;Constructor&gt; -->
<g id="node10" class="node" pointer-events="visible" data-name="Proxy.&lt;Constructor&gt;">

<ellipse fill="#ff9797" stroke="#ff9797" stroke-width="3" cx="90.53" cy="-241" rx="67.55" ry="18"/>
<text text-anchor="middle" x="90.53" y="-236.8" font-family="Times,serif" font-size="14.00">&lt;Constructor&gt;</text>
</g>
<!-- Proxy._setAdmin -->
<g id="node13" class="node" pointer-events="visible" data-name="Proxy._setAdmin">

<ellipse fill="#edad56" stroke="#edad56" stroke-width="3" cx="270.42" cy="-197" rx="53.34" ry="18"/>
<text text-anchor="middle" x="270.42" y="-192.8" font-family="Times,serif" font-size="14.00">_setAdmin</text>
</g><g id="edge6" class="edge" data-name="Proxy.ifAdmin-&gt;Proxy._fallback" data-comment="Proxy._setAdmin">

<path fill="none" stroke="#1bc6a6" stroke-width="2" d="M389.31,-228.96C324.16,-213.3 210.76,-186.04 143.8,-169.94"/>
<polygon fill="#1bc6a6" stroke="#1bc6a6" stroke-width="2" points="144.95,-166.62 134.41,-167.68 143.31,-173.43 144.95,-166.62"/>
</g>
<!-- Proxy.&lt;Constructor&gt;&#45;&gt;Proxy._setAdmin -->

<!-- Proxy.ifAdmin -->
<g id="node11" class="node" pointer-events="visible" data-name="Proxy.ifAdmin">

<polygon fill="#edad56" stroke="#1bc6a6" stroke-width="3" points="486.61,-233.54 486.61,-248.46 458.94,-259 419.8,-259 392.12,-248.46 392.12,-233.54 419.8,-223 458.94,-223 486.61,-233.54"/>
<polygon fill="none" stroke="#1bc6a6" stroke-width="3" points="490.6,-230.79 490.6,-251.21 459.67,-263 419.06,-263 388.13,-251.21 388.13,-230.79 419.06,-219 459.67,-219 490.6,-230.79"/>
<text text-anchor="middle" x="439.37" y="-236.8" font-family="Times,serif" font-size="14.00">ifAdmin</text>
</g><g id="edge7" class="edge" data-name="Proxy._getAdmin-&gt;StorageSlot.getAddressSlot" data-comment="Proxy.ifAdmin">

<path fill="none" stroke="white" stroke-width="2" d="M142.73,-190.3C287.16,-171.8 692.41,-119.86 863.39,-97.95"/>
<polygon fill="white" stroke="white" stroke-width="2" points="863.79,-101.43 873.26,-96.69 862.9,-94.49 863.79,-101.43"/>
</g>
<!-- Proxy._getAdmin -->
<g id="node12" class="node" pointer-events="visible" data-name="Proxy._getAdmin">

<ellipse fill="#edad56" stroke="#edad56" stroke-width="3" cx="90.49" cy="-197" rx="54.48" ry="18"/>
<text text-anchor="middle" x="90.49" y="-192.8" font-family="Times,serif" font-size="14.00">_getAdmin</text>
</g>
<!-- Proxy.ifAdmin&#45;&gt;Proxy._getAdmin -->
<g id="edge8" class="edge" data-name="Proxy._setAdmin-&gt;Proxy.address" data-comment="Proxy.ifAdmin-&gt;Proxy._getAdmin">

<path fill="none" stroke="#1bc6a6" stroke-width="2" d="M270.69,-177.94C270.7,-177.82 270.7,-177.7 270.7,-177.57"/>
<polygon fill="#1bc6a6" stroke="#1bc6a6" stroke-width="2" points="274.02,-189.56 270.67,-179.51 267.03,-189.46 274.02,-189.56"/>
</g>
<!-- Proxy._fallback -->
<g id="node21" class="node" pointer-events="visible" data-name="Proxy._fallback">

<ellipse fill="#edad56" stroke="#edad56" stroke-width="3" cx="89.96" cy="-157" rx="46.92" ry="18"/>
<text text-anchor="middle" x="89.96" y="-152.8" font-family="Times,serif" font-size="14.00">_fallback</text>
</g><g id="edge9" class="edge" data-name="Proxy._setAdmin-&gt;StorageSlot.getAddressSlot" data-comment="Proxy._fallback">

<path fill="none" stroke="white" stroke-width="2" d="M320.28,-188.9C437.17,-169.9 729.38,-122.4 867.07,-100.02"/>
<polygon fill="white" stroke="white" stroke-width="2" points="867.6,-103.48 876.91,-98.42 866.48,-96.57 867.6,-103.48"/>
</g>
<!-- Proxy.ifAdmin&#45;&gt;Proxy._fallback -->

<!-- StorageSlot.getAddressSlot -->
<g id="node31" class="node" pointer-events="visible" data-name="StorageSlot.getAddressSlot">

<ellipse fill="#edad56" stroke="#edad56" stroke-width="3" cx="941.05" cy="-88" rx="70.1" ry="18"/>
<text text-anchor="middle" x="941.05" y="-83.8" font-family="Times,serif" font-size="14.00">getAddressSlot</text>
</g><g id="edge10" class="edge" data-name="Proxy._getImplementation-&gt;StorageSlot.getAddressSlot" data-comment="StorageSlot.getAddressSlot">

<path fill="none" stroke="white" stroke-width="2" d="M152.3,-270.75C307.35,-234.83 713.37,-140.75 874.12,-103.51"/>
<polygon fill="white" stroke="white" stroke-width="2" points="874.73,-106.96 883.68,-101.29 873.15,-100.14 874.73,-106.96"/>
</g>
<!-- Proxy._getAdmin&#45;&gt;StorageSlot.getAddressSlot -->

<!-- Proxy.address -->
<g id="node24" class="node" pointer-events="visible" data-name="Proxy.address">

<ellipse fill="#edad56" stroke="#edad56" stroke-width="3" cx="271" cy="-157" rx="40" ry="18"/>
<text text-anchor="middle" x="271" y="-152.8" font-family="Times,serif" font-size="14.00">address</text>
</g><g id="edge11" class="edge" data-name="Proxy._setImplementation-&gt;StorageSlot.getAddressSlot" data-comment="Proxy.address">

<path fill="none" stroke="white" stroke-width="2" d="M323.89,-269.38C446.76,-233.27 749.84,-144.19 880.03,-105.93"/>
<polygon fill="white" stroke="white" stroke-width="2" points="880.93,-109.32 889.54,-103.14 878.96,-102.6 880.93,-109.32"/>
</g>
<!-- Proxy._setAdmin&#45;&gt;Proxy.address -->

<!-- Proxy._setAdmin&#45;&gt;StorageSlot.getAddressSlot -->
<g id="edge12" class="edge" data-name="Proxy.changeAdmin-&gt;Proxy._setAdmin" data-comment="Proxy._setAdmin-&gt;StorageSlot.getAddressSlot">

<path fill="none" stroke="#1bc6a6" stroke-width="2" d="M270.86,-221.57C270.86,-221.46 270.85,-221.35 270.85,-221.24"/>
<polygon fill="#1bc6a6" stroke="#1bc6a6" stroke-width="2" points="274.5,-229.27 270.82,-219.33 267.5,-229.39 274.5,-229.27"/>
</g>
<!-- Proxy._getImplementation -->
<g id="node14" class="node" pointer-events="visible" data-name="Proxy._getImplementation">

<ellipse fill="#edad56" stroke="#edad56" stroke-width="3" cx="90.81" cy="-285" rx="88.61" ry="18"/>
<text text-anchor="middle" x="90.81" y="-280.8" font-family="Times,serif" font-size="14.00">_getImplementation</text>
</g>
<!-- Proxy._getImplementation&#45;&gt;StorageSlot.getAddressSlot -->
<g id="edge13" class="edge" data-name="Proxy.upgradeTo-&gt;Proxy._setImplementation" data-comment="Proxy._getImplementation-&gt;StorageSlot.getAddressSlot">

<path fill="none" stroke="#1bc6a6" stroke-width="2" d="M408.42,-212.94C382.69,-226.4 345.46,-245.89 316.2,-261.21"/>
<polygon fill="#1bc6a6" stroke="#1bc6a6" stroke-width="2" points="314.93,-257.92 307.69,-265.66 318.17,-264.12 314.93,-257.92"/>
</g>
<!-- Proxy._setImplementation -->
<g id="node15" class="node" pointer-events="visible" data-name="Proxy._setImplementation">

<ellipse fill="#edad56" stroke="#edad56" stroke-width="3" cx="270.74" cy="-285" rx="87.97" ry="18"/>
<text text-anchor="middle" x="270.74" y="-280.8" font-family="Times,serif" font-size="14.00">_setImplementation</text>
</g>
<!-- Proxy._setImplementation&#45;&gt;StorageSlot.getAddressSlot -->
<g id="edge14" class="edge" data-name="Proxy.admin-&gt;Proxy._getAdmin" data-comment="Proxy._setImplementation-&gt;StorageSlot.getAddressSlot">

<path fill="none" stroke="#1bc6a6" stroke-width="2" d="M403.17,-161.13C344.98,-167.81 229.41,-181.06 156.24,-189.46"/>
<polygon fill="#1bc6a6" stroke="#1bc6a6" stroke-width="2" points="156.08,-185.95 146.55,-190.57 156.88,-192.91 156.08,-185.95"/>
</g>
<!-- Proxy.changeAdmin -->
<g id="node16" class="node" pointer-events="visible" data-name="Proxy.changeAdmin">

<ellipse fill="#ffbdb9" stroke="#ffbdb9" stroke-width="3" cx="271.21" cy="-241" rx="65.41" ry="18"/>
<text text-anchor="middle" x="271.21" y="-236.8" font-family="Times,serif" font-size="14.00">changeAdmin</text>
</g>
<!-- Proxy.changeAdmin&#45;&gt;Proxy._setAdmin -->
<g id="edge15" class="edge" data-name="Proxy.implementation-&gt;Proxy._getImplementation" data-comment="Proxy.changeAdmin-&gt;Proxy._setAdmin">

<path fill="none" stroke="#1bc6a6" stroke-width="2" d="M517.43,-285C432.01,-285 290.2,-285 193.73,-285"/>
<polygon fill="#1bc6a6" stroke="#1bc6a6" stroke-width="2" points="193.75,-281.5 183.75,-285 193.75,-288.5 193.75,-281.5"/>
</g>
<!-- Proxy.upgradeTo --><!-- Proxy._delegate -->
<g id="node17" class="node" pointer-events="visible" data-name="Proxy.upgradeTo" data-comment="Proxy._delegate">

<ellipse fill="#ffbdb9" stroke="#ffbdb9" stroke-width="3" cx="438.87" cy="-197" rx="52.73" ry="18"/>
<text text-anchor="middle" x="438.87" y="-192.8" font-family="Times,serif" font-size="14.00">upgradeTo</text>
</g>
<!-- Proxy.upgradeTo&#45;&gt;Proxy._setImplementation --><!-- Proxy._fallback&#45;&gt;Proxy._getImplementation -->
<g id="edge17" class="edge" data-name="Proxy._fallback-&gt;Proxy._getImplementation">

<path fill="none" stroke="#1bc6a6" stroke-width="2" d="M90.09,-176.44C90.22,-196.76 90.44,-228.99 90.6,-253.05"/>
<polygon fill="#1bc6a6" stroke="#1bc6a6" stroke-width="2" points="87.09,-252.79 90.66,-262.77 94.09,-252.75 87.09,-252.79"/>
</g>
<!-- Proxy.admin --><!-- Proxy._fallback&#45;&gt;Proxy._delegate -->
<g id="node18" class="node" pointer-events="visible" data-name="Proxy.admin" data-comment="Proxy._fallback-&gt;Proxy._delegate">

<ellipse fill="#ffbdb9" stroke="#ffbdb9" stroke-width="3" cx="439.17" cy="-157" rx="35.35" ry="18"/>
<text text-anchor="middle" x="439.17" y="-152.8" font-family="Times,serif" font-size="14.00">admin</text>
</g><g id="edge16" class="edge" data-name="Proxy._fallback-&gt;Proxy._delegate">

<path fill="none" stroke="#1bc6a6" stroke-width="2" d="M137.1,-160.76C228.24,-168.04 428.54,-184.03 529.82,-192.11"/>
<polygon fill="#1bc6a6" stroke="#1bc6a6" stroke-width="2" points="529.29,-195.58 539.53,-192.89 529.84,-188.6 529.29,-195.58"/>
</g>
<!-- Proxy.admin&#45;&gt;Proxy._getAdmin --><!-- Proxy.&lt;Fallback&gt; -->

<!-- Proxy.implementation --><!-- Proxy.&lt;Fallback&gt;&#45;&gt;Proxy._fallback -->
<g id="node19" class="node" pointer-events="visible" data-name="Proxy.implementation" data-comment="Proxy.&lt;Fallback&gt;-&gt;Proxy._fallback">

<ellipse fill="#ffbdb9" stroke="#ffbdb9" stroke-width="3" cx="590.65" cy="-285" rx="71.79" ry="18"/>
<text text-anchor="middle" x="590.65" y="-280.8" font-family="Times,serif" font-size="14.00">implementation</text>
</g><g id="edge18" class="edge" data-name="Proxy.&lt;Fallback&gt;-&gt;Proxy._fallback">

<path fill="none" stroke="#1bc6a6" stroke-width="2" d="M540.36,-232.48C446.28,-216.72 245.6,-183.08 147.01,-166.56"/>
<polygon fill="#1bc6a6" stroke="#1bc6a6" stroke-width="2" points="147.8,-163.14 137.36,-164.94 146.64,-170.05 147.8,-163.14"/>
</g>
<!-- Proxy.implementation&#45;&gt;Proxy._getImplementation --><!-- Proxy.&lt;Receive Ether&gt; -->

<g id="node20" class="node" pointer-events="visible" data-name="Proxy._delegate" data-comment="Proxy.&lt;Receive Ether&gt;">

<ellipse fill="#edad56" stroke="#edad56" stroke-width="3" cx="591.03" cy="-197" rx="48.07" ry="18"/>
<text text-anchor="middle" x="591.03" y="-192.8" font-family="Times,serif" font-size="14.00">_delegate</text>
</g><g id="node22" class="node" pointer-events="visible" data-name="Proxy.&lt;Fallback&gt;" data-comment="Proxy.&lt;Receive Ether&gt;">

<ellipse fill="#ffbdb9" stroke="brown" stroke-width="3" cx="591.18" cy="-241" rx="55.36" ry="18"/>
<text text-anchor="middle" x="591.18" y="-236.8" font-family="Times,serif" font-size="14.00">&lt;Fallback&gt;</text>
</g><g id="node23" class="node" pointer-events="visible" data-name="Proxy.&lt;Receive Ether&gt;">

<ellipse fill="#ffbdb9" stroke="brown" stroke-width="3" cx="439.35" cy="-285" rx="76.21" ry="18"/>
<text text-anchor="middle" x="439.35" y="-280.8" font-family="Times,serif" font-size="14.00">&lt;Receive Ether&gt;</text>
</g><!-- Proxy.&lt;Receive Ether&gt;&#45;&gt;Proxy._fallback -->
<g id="edge19" class="edge" data-name="Proxy.&lt;Receive Ether&gt;-&gt;Proxy._fallback">

<path fill="none" stroke="#1bc6a6" stroke-width="2" d="M395.46,-268.92C329.63,-244.8 205.84,-199.45 137.79,-174.52"/>
<polygon fill="#1bc6a6" stroke="#1bc6a6" stroke-width="2" points="139.19,-171.31 128.6,-171.15 136.79,-177.88 139.19,-171.31"/>
</g>
<!-- ProxyAdmin.&lt;Constructor&gt; -->
<g id="node25" class="node" pointer-events="visible" data-name="ProxyAdmin.&lt;Constructor&gt;">

<ellipse fill="#ff9797" stroke="#ff9797" stroke-width="3" cx="776.53" cy="-201" rx="67.55" ry="18"/>
<text text-anchor="middle" x="776.53" y="-196.8" font-family="Times,serif" font-size="14.00">&lt;Constructor&gt;</text>
</g>
<!-- ProxyAdmin.onlyOwner -->
<g id="node26" class="node" pointer-events="visible" data-name="ProxyAdmin.onlyOwner">

<polygon fill="#edad56" stroke="#1bc6a6" stroke-width="3" points="1034.92,-193.54 1034.92,-208.46 1000.39,-219 951.56,-219 917.03,-208.46 917.03,-193.54 951.56,-183 1000.39,-183 1034.92,-193.54"/>
<polygon fill="none" stroke="#1bc6a6" stroke-width="3" points="1038.92,-190.58 1038.92,-211.42 1000.99,-223 950.96,-223 913.03,-211.42 913.03,-190.58 950.96,-179 1000.99,-179 1038.92,-190.58"/>
<text text-anchor="middle" x="975.97" y="-196.8" font-family="Times,serif" font-size="14.00">onlyOwner</text>
</g>
<!-- ProxyAdmin.getProxyAdmin -->
<g id="node27" class="node" pointer-events="visible" data-name="ProxyAdmin.getProxyAdmin">

<ellipse fill="#ffbdb9" stroke="#ffbdb9" stroke-width="3" cx="1140.73" cy="-245" rx="72.96" ry="18"/>
<text text-anchor="middle" x="1140.73" y="-240.8" font-family="Times,serif" font-size="14.00">getProxyAdmin</text>
</g>
<!-- proxy.staticcall -->
<g id="node35" class="node" pointer-events="visible" data-name="proxy.staticcall">

<ellipse fill="#edad56" stroke="#edad56" stroke-width="3" cx="941.35" cy="-20" rx="45.21" ry="18"/>
<text text-anchor="middle" x="941.35" y="-15.8" font-family="Times,serif" font-size="14.00">staticcall</text>
</g>
<!-- ProxyAdmin.getProxyAdmin&#45;&gt;proxy.staticcall -->
<g id="edge20" class="edge" data-name="ProxyAdmin.getProxyAdmin-&gt;proxy.staticcall">

<path fill="none" stroke="white" stroke-width="2" d="M1124.08,-226.2C1089.01,-186.63 1007.42,-94.56 966.17,-48.01"/>
<polygon fill="white" stroke="white" stroke-width="2" points="968.8,-45.7 959.55,-40.54 963.56,-50.34 968.8,-45.7"/>
</g>
<!-- abi.encodeCall -->
<g id="node36" class="node" pointer-events="visible" data-name="abi.encodeCall">

<ellipse fill="#edad56" stroke="#edad56" stroke-width="3" cx="331.47" cy="-20" rx="54.45" ry="18"/>
<text text-anchor="middle" x="331.47" y="-15.8" font-family="Times,serif" font-size="14.00">encodeCall</text>
</g>
<!-- ProxyAdmin.getProxyAdmin&#45;&gt;abi.encodeCall -->
<g id="edge21" class="edge" data-name="ProxyAdmin.getProxyAdmin-&gt;abi.encodeCall">

<path fill="none" stroke="white" stroke-width="2" d="M1089.8,-230.84C945.94,-190.84 537.25,-77.21 387.42,-35.56"/>
<polygon fill="white" stroke="white" stroke-width="2" points="388.48,-32.22 377.91,-32.91 386.61,-38.96 388.48,-32.22"/>
</g>
<!-- ProxyAdmin.getProxyImplementation -->
<g id="node28" class="node" pointer-events="visible" data-name="ProxyAdmin.getProxyImplementation">

<ellipse fill="#ffbdb9" stroke="#ffbdb9" stroke-width="3" cx="777.05" cy="-245" rx="107.1" ry="18"/>
<text text-anchor="middle" x="777.05" y="-240.8" font-family="Times,serif" font-size="14.00">getProxyImplementation</text>
</g>
<!-- ProxyAdmin.getProxyImplementation&#45;&gt;proxy.staticcall -->
<g id="edge22" class="edge" data-name="ProxyAdmin.getProxyImplementation-&gt;proxy.staticcall">

<path fill="none" stroke="white" stroke-width="2" d="M791.06,-225.82C819.94,-186.27 886.24,-95.47 920.31,-48.82"/>
<polygon fill="white" stroke="white" stroke-width="2" points="922.99,-51.09 926.06,-40.95 917.33,-46.96 922.99,-51.09"/>
</g>
<!-- ProxyAdmin.getProxyImplementation&#45;&gt;abi.encodeCall -->
<g id="edge23" class="edge" data-name="ProxyAdmin.getProxyImplementation-&gt;abi.encodeCall">

<path fill="none" stroke="white" stroke-width="2" d="M740.96,-226.78C659.64,-185.71 462.32,-86.07 374.67,-41.81"/>
<polygon fill="white" stroke="white" stroke-width="2" points="376.26,-38.69 365.75,-37.31 373.1,-44.94 376.26,-38.69"/>
</g>
<!-- ProxyAdmin.changeProxyAdmin -->
<g id="node29" class="node" pointer-events="visible" data-name="ProxyAdmin.changeProxyAdmin">

<ellipse fill="#ffbdb9" stroke="#ffbdb9" stroke-width="3" cx="976.28" cy="-245" rx="88.06" ry="18"/>
<text text-anchor="middle" x="976.28" y="-240.8" font-family="Times,serif" font-size="14.00">changeProxyAdmin</text>
</g>
<!-- ProxyAdmin.upgrade -->
<g id="node30" class="node" pointer-events="visible" data-name="ProxyAdmin.upgrade">

<ellipse fill="#ffbdb9" stroke="#ffbdb9" stroke-width="3" cx="1141.14" cy="-201" rx="42.28" ry="18"/>
<text text-anchor="middle" x="1141.14" y="-196.8" font-family="Times,serif" font-size="14.00">upgrade</text>
</g>
<!-- TestSlot.getSlot -->
<g id="node32" class="node" pointer-events="visible" data-name="TestSlot.getSlot">

<ellipse fill="#ffbdb9" stroke="#ffbdb9" stroke-width="3" cx="379.4" cy="-88" rx="38.3" ry="18"/>
<text text-anchor="middle" x="379.4" y="-83.8" font-family="Times,serif" font-size="14.00">getSlot</text>
</g>
<!-- TestSlot.getSlot&#45;&gt;StorageSlot.getAddressSlot -->
<g id="edge24" class="edge" data-name="TestSlot.getSlot-&gt;StorageSlot.getAddressSlot">

<path fill="none" stroke="white" stroke-width="2" d="M418.89,-88C509.45,-88 733.7,-88 856.81,-88"/>
<polygon fill="white" stroke="white" stroke-width="2" points="856.46,-91.5 866.46,-88 856.46,-84.5 856.46,-91.5"/>
</g>
<!-- TestSlot.writeSlot -->

<g id="node33" class="node" pointer-events="visible" data-name="TestSlot.writeSlot">

<ellipse fill="#ffbdb9" stroke="#ffbdb9" stroke-width="3" cx="291.44" cy="-88" rx="46.39" ry="18"/>
<text text-anchor="middle" x="291.44" y="-83.8" font-family="Times,serif" font-size="14.00">writeSlot</text>
</g>

<!-- TestSlot.writeSlot&#45;&gt;StorageSlot.getAddressSlot -->

<g id="edge25" class="edge" data-name="TestSlot.writeSlot-&gt;StorageSlot.getAddressSlot">

<path fill="none" stroke="white" stroke-width="2" d="M339.21,-88C448.63,-88 718.62,-88 856.73,-88"/>
<polygon fill="white" stroke="white" stroke-width="2" points="856.65,-91.5 866.65,-88 856.65,-84.5 856.65,-91.5"/>
</g>

<!-- key -->

<g id="node37" class="node" pointer-events="visible" data-name="key">

<polygon fill="#edad56" stroke="none" stroke-width="3" points="1765,-265 1635,-265 1635,-177 1765,-177 1765,-265"/>
<text text-anchor="start" x="1684.64" y="-246.4" font-family="Times,serif" font-size="14.00">Internal Call</text>
<text text-anchor="start" x="1680.75" y="-226.4" font-family="Times,serif" font-size="14.00">External Call</text>
<text text-anchor="start" x="1658.2" y="-206.4" font-family="Times,serif" font-size="14.00">Defined Contract</text>
<text text-anchor="start" x="1644.6" y="-186.4" font-family="Times,serif" font-size="14.00">Undefined Contract</text>
</g>

<!-- key2 -->

<g id="node38" class="node" pointer-events="visible" data-name="key2">

<polygon fill="#edad56" stroke="none" stroke-width="3" points="1823,-265 1769,-265 1769,-177 1823,-177 1823,-265"/>
<text text-anchor="start" x="1786" y="-246.4" font-family="Times,serif" font-size="14.00">   </text>
<text text-anchor="start" x="1786" y="-226.4" font-family="Times,serif" font-size="14.00">   </text>
<polygon fill="#445773" stroke="none" points="1784,-201 1784,-221 1809,-221 1809,-201 1784,-201"/>
<text text-anchor="start" x="1786" y="-206.4" font-family="Times,serif" font-size="14.00">   </text>
<polygon fill="none" stroke="#e8726d" points="1786,-183 1786,-199 1807,-199 1807,-183 1786,-183"/>
</g>

<!-- key&#45;&gt;key2 -->

<g id="edge26" class="edge" data-name="key-&gt;key2">

<path fill="none" stroke="#1bc6a6" stroke-width="2" d="M1757,-251C1757,-251 1764.18,-251 1771.13,-251"/>
<polygon fill="#1bc6a6" stroke="#1bc6a6" stroke-width="2" points="1770.97,-254.5 1780.97,-251 1770.97,-247.5 1770.97,-254.5"/>
</g>

<!-- key&#45;&gt;key2 -->


<g id="edge27" class="edge" data-name="key-&gt;key2">

<path fill="none" stroke="white" stroke-width="2" d="M1757,-231C1757,-231 1764.18,-231 1771.13,-231"/>
<polygon fill="white" stroke="white" stroke-width="2" points="1770.97,-234.5 1780.97,-231 1770.97,-227.5 1770.97,-234.5"/>
</g>
</g>
</svg>